<svg xmlns="http://www.w3.org/2000/svg" width="60" height="60" viewBox="0 0 60 60"><defs><style>.a{fill:#f1f1f1;}.b{fill:#8abb2a;}</style></defs><g transform="translate(-183.385 -360.914)"><path class="a" d="M199.308,376.951V372.99H193.28v-4h9.933v12.076H183.385V360.914h19.828v4H187.442v12.038Z"/><path class="a" d="M187.346,501.176V485.062h-3.961v20.114h19.828v-4Z" transform="translate(0 -84.262)"/><path class="a" d="M326.484,485.062v16.114H310.617v4h19.828V485.062Z" transform="translate(-87.06 -84.262)"/><path class="a" d="M310.617,360.97v4h15.867v16.115h3.961V360.97Z" transform="translate(-87.06 -0.037)"/><path class="b" d="M273.385,445a5,5,0,1,1-5.013-5A5.007,5.007,0,0,1,273.385,445Z" transform="translate(-55 -54.088)"/></g></svg>